<svg width="16" height="13" viewBox="0 0 16 13" fill="none" xmlns="http://www.w3.org/2000/svg">
<path d="M10.7771 1.00001C10.1706 1.00245 9.57417 1.1552 9.04118 1.4446C8.5082 1.734 8.05527 2.15101 7.72293 2.65833C7.28758 2.0042 6.65372 1.50713 5.91466 1.24029C5.1756 0.973446 4.3704 0.950931 3.61758 1.17606C2.86477 1.40119 2.20412 1.86206 1.73289 2.49084C1.26167 3.11961 1.00476 3.88306 1 4.66881C1 10.1688 7.72293 12 7.72293 12C7.72293 12 14.4459 10.1688 14.4459 4.66881C14.4467 4.18677 14.3524 3.70932 14.1683 3.26382C13.9842 2.81832 13.714 2.41354 13.3732 2.07269C13.0323 1.73184 12.6275 1.46163 12.182 1.27756C11.7365 1.09348 11.2591 0.999162 10.7771 1.00001V1.00001Z" stroke="white" stroke-width="1.91" stroke-miterlimit="10"/>
<path d="M10.7771 3.44582C10.9379 3.44497 11.0973 3.47602 11.2461 3.53718C11.3948 3.59834 11.53 3.68839 11.6437 3.80211C11.7574 3.91584 11.8475 4.051 11.9086 4.19975C11.9698 4.34851 12.0009 4.50792 12 4.66875C11.9909 5.2008 11.8758 5.7257 11.6615 6.21274C11.4471 6.69977 11.1377 7.13916 10.7515 7.50519" stroke="white" stroke-width="1.91" stroke-miterlimit="10"/>
</svg>
